<?xml version="1.0" encoding="UTF-8" standalone="no"?>
<!-- Created with Inkscape (http://www.inkscape.org/) -->

<svg
   xmlns:dc="http://purl.org/dc/elements/1.1/"
   xmlns:cc="http://creativecommons.org/ns#"
   xmlns:rdf="http://www.w3.org/1999/02/22-rdf-syntax-ns#"
   xmlns:svg="http://www.w3.org/2000/svg"
   xmlns="http://www.w3.org/2000/svg"
   xmlns:sodipodi="http://sodipodi.sourceforge.net/DTD/sodipodi-0.dtd"
   xmlns:inkscape="http://www.inkscape.org/namespaces/inkscape"
   width="100mm"
   height="100mm"
   viewBox="0 0 100 100"
   version="1.1"
   id="svg8"
   inkscape:version="0.92.3 (2405546, 2018-03-11)"
   sodipodi:docname="Inkscape adobe Illustrator Logo version.svg">
  <title
     id="title10">Inkscape adobe Illustrator Logo version</title>
  <defs
     id="defs2" />
  <sodipodi:namedview
     id="base"
     pagecolor="#ffffff"
     bordercolor="#666666"
     borderopacity="1.0"
     inkscape:pageopacity="0.0"
     inkscape:pageshadow="2"
     inkscape:zoom="1.4"
     inkscape:cx="350"
     inkscape:cy="196.4933"
     inkscape:document-units="mm"
     inkscape:current-layer="layer2"
     showgrid="false"
     inkscape:window-width="1366"
     inkscape:window-height="705"
     inkscape:window-x="-8"
     inkscape:window-y="-8"
     inkscape:window-maximized="1" />
  <metadata
     id="metadata5">
    <rdf:RDF>
      <cc:Work
         rdf:about="">
        <dc:format>image/svg+xml</dc:format>
        <dc:type
           rdf:resource="http://purl.org/dc/dcmitype/StillImage" />
        <dc:title>Inkscape adobe Illustrator Logo version</dc:title>
        <cc:license
           rdf:resource="http://creativecommons.org/licenses/by-sa/4.0/" />
        <dc:creator>
          <cc:Agent>
            <dc:title>Sharkbyteprojects</dc:title>
          </cc:Agent>
        </dc:creator>
      </cc:Work>
      <cc:License
         rdf:about="http://creativecommons.org/licenses/by-sa/4.0/">
        <cc:permits
           rdf:resource="http://creativecommons.org/ns#Reproduction" />
        <cc:permits
           rdf:resource="http://creativecommons.org/ns#Distribution" />
        <cc:requires
           rdf:resource="http://creativecommons.org/ns#Notice" />
        <cc:requires
           rdf:resource="http://creativecommons.org/ns#Attribution" />
        <cc:permits
           rdf:resource="http://creativecommons.org/ns#DerivativeWorks" />
        <cc:requires
           rdf:resource="http://creativecommons.org/ns#ShareAlike" />
      </cc:License>
    </rdf:RDF>
  </metadata>
  <g
     inkscape:groupmode="layer"
     id="layer3"
     inkscape:label="Ebene 3">
    <path
       transform="translate(0,-197)"
       style="fill:#000080;stroke:#000000;stroke-width:0.26458332;stroke-opacity:1"
       d="m 28.537203,197.0253 h 42.711315 c 15.704912,0 28.348215,12.6433 28.348215,28.34821 v 43.08929 c 0,15.70491 -12.643303,28.34821 -28.348215,28.34821 H 28.537203 c -15.704911,0 -28.34821487,-12.6433 -28.34821487,-28.34821 v -43.08929 c 0,-15.70491 12.64330387,-28.34821 28.34821487,-28.34821 z"
       id="rect12" />
  </g>
  <g
     inkscape:groupmode="layer"
     id="layer2"
     inkscape:label="Ebene 2">
    <rect
       style="fill:#ffffff;stroke:#000000;stroke-width:0.264927;stroke-opacity:1"
       id="rect92"
       width="76.222145"
       height="77.844597"
       x="12.226239"
       y="9.4951496" />
  </g>
  <g
     inkscape:label="Ebene 1"
     inkscape:groupmode="layer"
     id="layer1"
     transform="translate(0,-197)">
    <path
       style="fill:#0000ff;stroke:#000000;stroke-width:0.95733434;stroke-opacity:1"
       d="M 111.42773,7.9433594 C 54.240418,7.9433594 8.2011719,53.398993 8.2011719,109.86328 V 264.7832 c 0,56.46426 46.0392461,101.92188 103.2265581,101.92188 h 155.52735 c 57.18732,0 103.22656,-45.45762 103.22656,-101.92188 V 109.86328 C 370.18164,53.398993 324.1424,7.9433594 266.95508,7.9433594 Z M 263.43164,47.314453 c 11.05421,0 22.06135,1.746149 33.02344,5.238281 11.05421,3.492133 23.30657,9.63329 36.75586,18.423828 v 42.447268 h -2.07227 c -5.66528,-6.20154 -11.30668,-11.56057 -16.92578,-16.076174 -1.40477,-1.128897 -2.80904,-2.204982 -4.21094,-3.228515 -4.20569,-3.070606 -8.39825,-5.666693 -12.57812,-7.789063 -11.14633,-5.659653 -23.07673,-8.490234 -35.78906,-8.490234 -10.40941,0 -19.80474,2.228135 -28.1875,6.683594 -8.29067,4.33508 -15.70765,11.137954 -22.24805,20.410152 -6.35618,9.03137 -11.32926,20.47224 -14.92188,34.32032 -3.06293,12.01173 -4.78682,25.68293 -5.16992,41.01367 -0.0547,2.1901 -0.082,4.41403 -0.082,6.67187 0,18.90565 1.93572,35.16225 5.80469,48.76953 3.9611,13.60725 9.02728,24.68471 15.19922,33.23438 6.44828,8.91095 13.95644,15.5341 22.52343,19.86914 8.65916,4.21466 17.77905,6.32227 27.35938,6.32227 13.17293,0 25.51647,-2.94909 37.03125,-8.84961 11.51481,-5.90049 22.29306,-14.75173 32.33398,-26.55274 h 1.9336 v 41.9043 c -5.0665,2.89005 -9.67302,5.60014 -13.81836,8.1289 -4.05321,2.52881 -9.39482,5.17763 -16.02735,7.94727 -5.61922,2.28794 -11.74635,4.21581 -18.3789,5.78125 -6.54039,1.68586 -13.77116,2.52734 -21.69336,2.52734 -14.92318,0 -28.50998,-2.70813 -40.76172,-8.12695 -12.15965,-5.53924 -22.75365,-14.14952 -31.78125,-25.83008 -8.84337,-11.43976 -15.75217,-25.95021 -20.72656,-43.53125 -4.97441,-17.70153 -7.46094,-38.2326 -7.46094,-61.59375 0,-22.15699 2.39342,-41.96707 7.18359,-59.42773 4.79015,-17.46066 11.69896,-32.210153 20.72657,-44.251954 8.75124,-11.680593 19.29868,-20.593059 31.64257,-26.734375 12.43598,-6.141355 26.20898,-9.210938 41.31641,-9.210938 z M 46.216797,52.191406 H 127.46484 V 79.646484 H 100.51953 V 293.68945 h 26.94531 v 27.45508 H 46.216797 V 293.68945 H 73.160156 V 79.646484 H 46.216797 Z"
       transform="matrix(0.26458333,0,0,0.26458333,0,197)"
       id="rect12-8"
       inkscape:connector-curvature="0"
       sodipodi:nodetypes="ssssssssssccccscsscccsscccscccccccscccscccscccccccccccsc" />
  </g>
</svg>
